#!OML:ASF C:\Vicon Data\Big\jianyuan-13\jianyuan\Session 1\Capture.male.ASF
:FULLY-SPECIFIED
:DEGREES
223
root -9.193250 17.420950 -9.996570 7.471576 0.716967 4.403362
lowerback -9.808388 -1.864672 -5.812631 
upperback 3.364206 -1.650911 -0.710337 
thorax 9.280091 -1.111319 2.217635 
lowerneck -3.140598 -1.998526 2.039654 
upperneck 24.411623 -2.518938 -2.103947 
head 7.978857 -1.193715 -1.237023 
rclavicle 0.000000 0.000000 
rhumerus -39.366042 -22.167722 -74.761399 
rradius 26.657423 
rwrist 36.127688 
rhand -18.150683 -16.809293 
rfingers 0.000000 
rthumb 8.124930 -46.633126 
lclavicle 0.000000 0.000000 
lhumerus -13.407744 9.644913 97.119991 
lradius 36.610571 
lwrist -35.327471 
lhand -22.278289 2.833411 
lfingers 0.000000 
lthumb 4.140066 32.772938 
rfemur -39.191051 12.784655 6.485655 
rtibia 33.576563 
rfoot -8.372675 3.130106 
rtoes -36.138129 
lfemur -6.244109 -6.189585 -30.131823 
ltibia 16.126863 
lfoot -9.378408 -9.972510 
ltoes -18.000790 
224
root -9.200922 17.421333 -9.929607 7.496602 0.793714 4.345281
lowerback -9.828698 -1.934641 -5.808966 
upperback 3.332790 -1.749140 -0.660760 
thorax 9.267682 -1.159388 2.250801 
lowerneck -3.093596 -1.965953 2.003235 
upperneck 24.429914 -2.476210 -2.073167 
head 7.978561 -1.174014 -1.217107 
rclavicle 0.000000 0.000000 
rhumerus -39.524469 -22.012352 -74.734596 
rradius 26.618233 
rwrist 35.796328 
rhand -18.317760 -16.868878 
rfingers 0.000000 
rthumb 7.963630 -46.698818 
lclavicle 0.000000 0.000000 
lhumerus -13.212248 8.916902 97.364440 
lradius 37.140060 
lwrist -34.678266 
lhand -22.119980 2.901492 
lfingers 0.000000 
lthumb 4.292921 32.837959 
rfemur -39.071843 12.217081 7.089662 
rtibia 32.840119 
rfoot -8.483890 2.511739 
rtoes -36.668470 
lfemur -5.942619 -6.226708 -30.046046 
ltibia 15.981263 
lfoot -9.418435 -9.984721 
ltoes -18.138792 
225
root -9.209652 17.422680 -9.861510 7.566578 0.849976 4.374722
lowerback -9.896364 -1.981268 -5.900812 
upperback 3.305737 -1.797047 -0.639319 
thorax 9.286642 -1.188382 2.315200 
lowerneck -3.085567 -1.940665 2.081787 
upperneck 24.409443 -2.432251 -2.153985 
head 7.968686 -1.153748 -1.253613 
rclavicle 0.000000 0.000000 
rhumerus -39.711031 -22.254972 -74.556366 
rradius 26.564456 
rwrist 35.945679 
rhand -18.314993 -16.863319 
rfingers 0.000000 
rthumb 7.966359 -46.693278 
lclavicle 0.000000 0.000000 
lhumerus -12.928956 8.222196 97.640923 
lradius 37.586945 
lwrist -34.171758 
lhand -22.032307 2.945050 
lfingers 0.000000 
lthumb 4.377557 32.879839 
rfemur -39.016888 11.578874 7.633061 
rtibia 32.138634 
rfoot -8.519640 1.856056 
rtoes -37.319505 
lfemur -5.665682 -6.270038 -30.048868 
ltibia 15.788272 
lfoot -9.447378 -9.965108 
ltoes -18.382687 
226
root -9.219281 17.422458 -9.788599 7.583910 0.890949 4.356980
lowerback -9.957434 -2.004545 -5.917355 
upperback 3.286301 -1.821989 -0.641573 
thorax 9.304007 -1.201215 2.316204 
lowerneck -3.072910 -1.966309 2.107847 
upperneck 24.450999 -2.486074 -2.085990 
head 7.980117 -1.170685 -1.239943 
rclavicle 0.000000 0.000000 
rhumerus -39.980972 -22.602249 -74.345426 
rradius 26.556606 
rwrist 36.226923 
rhand -18.093887 -16.895791 
rfingers 0.000000 
rthumb 8.179729 -46.717435 
lclavicle 0.000000 0.000000 
lhumerus -12.709921 7.464557 97.869559 
lradius 38.019534 
lwrist -33.646293 
lhand -21.894059 3.013387 
lfingers 0.000000 
lthumb 4.511060 32.945385 
rfemur -38.842755 11.005406 8.258717 
rtibia 31.442897 
rfoot -8.649300 1.174084 
rtoes -38.162689 
lfemur -5.280072 -6.201153 -30.000503 
ltibia 15.534927 
lfoot -9.367045 -10.053360 
ltoes -18.295840 
227
root -9.228064 17.424073 -9.714797 7.575461 0.925183 4.351857
lowerback -10.005650 -2.056091 -5.949902 
upperback 3.290991 -1.883855 -0.629967 
thorax 9.344997 -1.234310 2.333896 
lowerneck -3.022069 -1.950512 2.012910 
upperneck 24.412557 -2.491868 -1.912521 
head 7.962232 -1.166692 -1.165507 
rclavicle 0.000000 0.000000 
rhumerus -40.122943 -22.531481 -74.296192 
rradius 26.524491 
rwrist 35.979411 
rhand -18.101382 -16.801327 
rfingers 0.000000 
rthumb 8.172526 -46.623226 
lclavicle 0.000000 0.000000 
lhumerus -12.459027 6.818151 98.086996 
lradius 38.480075 
lwrist -33.141575 
lhand -21.701076 3.050085 
lfingers 0.000000 
lthumb 4.697420 32.977997 
rfemur -38.655169 10.403051 8.885854 
rtibia 30.725656 
rfoot -8.645073 0.506489 
rtoes -38.665120 
lfemur -4.867704 -6.103044 -29.976519 
ltibia 15.298644 
lfoot -9.314944 -10.154837 
ltoes -18.197011 
228
root -9.236545 17.425241 -9.642021 7.635718 0.953043 4.296573
lowerback -10.104600 -2.077616 -5.946425 
upperback 3.287651 -1.909118 -0.595168 
thorax 9.402865 -1.248637 2.361792 
lowerneck -3.088217 -1.949505 2.119701 
upperneck 24.428418 -2.471794 -2.058392 
head 7.975925 -1.160981 -1.231708 
rclavicle 0.000000 0.000000 
rhumerus -40.306093 -22.593612 -74.165401 
rradius 26.556233 
rwrist 35.999221 
rhand -18.121488 -16.829695 
rfingers 0.000000 
rthumb 8.153098 -46.652373 
lclavicle 0.000000 0.000000 
lhumerus -12.125032 6.324535 98.343754 
lradius 38.787262 
lwrist -32.919255 
lhand -21.634826 2.988023 
lfingers 0.000000 
lthumb 4.761362 32.914498 
rfemur -38.513617 9.920942 9.489752 
rtibia 30.028231 
rfoot -8.684962 -0.229852 
rtoes -38.565191 
lfemur -4.531086 -6.065371 -29.889396 
ltibia 15.039119 
lfoot -9.312424 -10.175539 
ltoes -18.514999 
229
root -9.245543 17.425959 -9.566287 7.650047 0.940255 4.244343
lowerback -10.167867 -2.085912 -5.955813 
upperback 3.275947 -1.918034 -0.558102 
thorax 9.429779 -1.255118 2.403619 
lowerneck -3.108208 -1.953169 2.167814 
upperneck 24.460497 -2.477118 -2.085461 
head 7.989124 -1.161603 -1.250010 
rclavicle 0.000000 0.000000 
rhumerus -40.535137 -22.833897 -73.932650 
rradius 26.501207 
rwrist 36.310513 
rhand -17.964323 -16.797937 
rfingers 0.000000 
rthumb 8.304774 -46.614681 
lclavicle 0.000000 0.000000 
lhumerus -11.948391 5.701135 98.543404 
lradius 39.202716 
lwrist -32.752272 
lhand -21.537038 3.043414 
lfingers 0.000000 
lthumb 4.855797 32.967805 
rfemur -38.328339 9.438593 10.150483 
rtibia 29.377525 
rfoot -8.769828 -0.914692 
rtoes -39.461794 
lfemur -4.134195 -6.071281 -29.826014 
ltibia 14.783356 
lfoot -9.333766 -10.090513 
ltoes -18.723409 
230
root -9.253947 17.425498 -9.488326 7.747252 1.001333 4.259244
lowerback -10.311313 -2.129946 -6.003493 
upperback 3.231365 -1.961684 -0.554387 
thorax 9.471317 -1.278901 2.422934 
lowerneck -3.084151 -1.953973 2.261476 
upperneck 24.504140 -2.480878 -2.120437 
head 7.997554 -1.158024 -1.278148 
rclavicle 0.000000 0.000000 
rhumerus -40.708992 -22.872835 -73.890642 
rradius 26.445166 
rwrist 36.071692 
rhand -18.079667 -16.879916 
rfingers 0.000000 
rthumb 8.193455 -46.701107 
lclavicle 0.000000 0.000000 
lhumerus -11.779993 5.140430 98.702809 
lradius 39.590864 
lwrist -32.413786 
lhand -21.298366 2.964805 
lfingers 0.000000 
lthumb 5.086251 32.883799 
rfemur -38.198753 8.989135 10.657824 
rtibia 28.758512 
rfoot -8.849822 -1.599388 
rtoes -39.740904 
lfemur -3.795882 -6.043825 -29.815935 
ltibia 14.477865 
lfoot -9.255265 -10.092331 
ltoes -18.814108 
231
root -9.267969 17.427680 -9.409876 7.800878 1.006479 4.204681
lowerback -10.437353 -2.164758 -6.051471 
upperback 3.206819 -1.997929 -0.500808 
thorax 9.526042 -1.301677 2.497316 
lowerneck -3.076291 -1.929000 2.159039 
upperneck 24.516740 -2.449057 -2.056119 
head 8.003657 -1.146250 -1.237116 
rclavicle 0.000000 0.000000 
rhumerus -40.856357 -22.874050 -73.823035 
rradius 26.509957 
rwrist 35.327499 
rhand -18.126316 -16.910805 
rfingers 0.000000 
rthumb 8.148434 -46.733726 
lclavicle 0.000000 0.000000 
lhumerus -11.507381 4.804423 98.924465 
lradius 39.804868 
lwrist -32.323541 
lhand -21.257693 2.981771 
lfingers 0.000000 
lthumb 5.125518 32.899779 
rfemur -38.014127 8.716657 11.234828 
rtibia 28.152042 
rfoot -8.825752 -2.307584 
rtoes -39.887538 
lfemur -3.399947 -5.752095 -29.697678 
ltibia 14.166178 
lfoot -9.106053 -10.274336 
ltoes -18.496200 
232
root -9.277077 17.428822 -9.332778 7.836096 0.989998 4.159690
lowerback -10.542660 -2.186526 -6.029450 
upperback 3.198235 -2.022941 -0.498369 
thorax 9.579873 -1.313422 2.479850 
lowerneck -3.109911 -1.908419 2.164560 
upperneck 24.555143 -2.441363 -1.972283 
head 8.024352 -1.134602 -1.210712 
rclavicle 0.000000 0.000000 
rhumerus -41.019866 -23.067270 -73.787891 
rradius 26.497849 
rwrist 35.386609 
rhand -18.175078 -17.024329 
rfingers 0.000000 
rthumb 8.101353 -46.849021 
lclavicle 0.000000 0.000000 
lhumerus -11.320075 4.314454 99.029822 
lradius 40.107526 
lwrist -32.137734 
lhand -21.202234 2.912889 
lfingers 0.000000 
lthumb 5.179055 32.829641 
rfemur -37.833123 8.406073 11.784569 
rtibia 27.571213 
rfoot -8.770058 -2.857164 
rtoes -40.063872 
lfemur -2.991783 -5.599745 -29.638207 
ltibia 13.859606 
lfoot -9.037271 -10.264084 
ltoes -18.738100 
233
root -9.287612 17.425700 -9.254382 7.900366 0.997041 4.245131
lowerback -10.670174 -2.212922 -6.140915 
upperback 3.184190 -2.029471 -0.538869 
thorax 9.643616 -1.322613 2.494042 
lowerneck -3.118152 -1.899001 2.264736 
upperneck 24.545940 -2.437151 -1.986432 
head 8.021294 -1.125229 -1.232158 
rclavicle 0.000000 0.000000 
rhumerus -41.157992 -22.844684 -73.897489 
rradius 26.523636 
rwrist 34.923062 
rhand -18.227438 -17.039015 
rfingers 0.000000 
rthumb 8.050824 -46.865635 
lclavicle 0.000000 0.000000 
lhumerus -11.111472 3.798044 99.111316 
lradius 40.356986 
lwrist -31.932426 
lhand -21.124225 2.904337 
lfingers 0.000000 
lthumb 5.254392 32.819219 
rfemur -37.672810 8.151860 12.142541 
rtibia 27.054809 
rfoot -8.738186 -3.406380 
rtoes -39.863544 
lfemur -2.602453 -5.389451 -29.700395 
ltibia 13.526081 
lfoot -8.899277 -10.348416 
ltoes -18.914580 
